<?xml version="1.0" encoding="UTF-8"?>
<svg id="Layer_2" data-name="Layer 2" xmlns="http://www.w3.org/2000/svg" viewBox="0 0 300 300">
  <defs>
    <style>
      .cls-1 {
        fill: #231f20;
      }
    </style>
  </defs>
  <g id="Layer_1-2" data-name="Layer 1">
    <g>
      <path class="cls-1" d="M150,300C67.29,300,0,232.71,0,150S67.29,0,150,0s150,67.29,150,150-67.29,150-150,150ZM150,57.77c-50.86,0-92.23,41.37-92.23,92.23s41.37,92.23,92.23,92.23,92.23-41.37,92.23-92.23-41.37-92.23-92.23-92.23Z"/>
      <path class="cls-1" d="M122.61,184.85c5.87,3.61,14.45,6.62,23.48,6.62,13.4,0,21.22-7.07,21.22-17.31,0-9.48-5.42-14.9-19.12-20.17-16.56-5.87-26.79-14.45-26.79-28.75,0-15.8,13.1-27.54,32.81-27.54,10.39,0,17.91,2.41,22.43,4.97l-3.61,10.69c-3.31-1.81-10.08-4.82-19.27-4.82-13.85,0-19.12,8.28-19.12,15.2,0,9.48,6.17,14.15,20.17,19.57,17.16,6.62,25.89,14.9,25.89,29.8,0,15.65-11.59,29.2-35.52,29.2-9.78,0-20.47-2.86-25.89-6.47l3.31-10.99Z"/>
    </g>
  </g>
</svg>